<svg width="40" height="40" viewBox="0 0 40 40" fill="none" xmlns="http://www.w3.org/2000/svg">
<rect width="40" height="40" rx="2" fill="black"/>
<path d="M12.1875 28.9732C12.1875 26.6926 13.9364 24.8438 16.0938 24.8438H20V28.9732C20 31.2538 18.2511 33.1027 16.0938 33.1027C13.9364 33.1027 12.1875 31.2538 12.1875 28.9732Z" fill="#24CB71"/>
<path d="M20 8.32593V16.5849H23.9062C26.0636 16.5849 27.8125 14.736 27.8125 12.4554C27.8125 10.1748 26.0636 8.32593 23.9062 8.32593H20Z" fill="#FF7237"/>
<path d="M23.873 24.8438C26.0304 24.8438 27.7793 22.9949 27.7793 20.7143C27.7793 18.4337 26.0304 16.5848 23.873 16.5848C21.7157 16.5848 19.9668 18.4337 19.9668 20.7143C19.9668 22.9949 21.7157 24.8438 23.873 24.8438Z" fill="#00B6FF"/>
<path d="M12.1875 12.4554C12.1875 14.736 13.9364 16.5849 16.0938 16.5849H20V8.32593H16.0938C13.9364 8.32593 12.1875 10.1748 12.1875 12.4554Z" fill="#FF3737"/>
<path d="M12.1875 20.7143C12.1875 22.9949 13.9364 24.8438 16.0938 24.8438H20V16.5848H16.0938C13.9364 16.5848 12.1875 18.4337 12.1875 20.7143Z" fill="#874FFF"/>
</svg>
