<svg width="50" height="50" viewBox="0 0 50 50" fill="none" xmlns="http://www.w3.org/2000/svg">
<path d="M17.8281 46.7083C19.7655 47.488 21.8672 47.9507 24.0741 48.0278C27.0608 48.1321 29.901 47.5146 32.44 46.3416C29.3953 45.1454 26.6378 43.3959 24.2843 41.2209C22.7588 43.6634 20.5025 45.5928 17.8281 46.7083Z" fill="#FF9100"/>
<path d="M24.2811 41.2216C18.9089 36.2531 15.6499 29.0618 15.9253 21.1743C15.9343 20.9182 15.9478 20.6622 15.9637 20.4063C15.0015 20.1574 13.997 20.0056 12.9633 19.9695C11.4837 19.9178 10.0508 20.1013 8.69807 20.4823C7.26397 22.9943 6.39856 25.8767 6.29074 28.964C6.01251 36.9316 10.8342 43.8935 17.8248 46.7089C20.4992 45.5933 22.7555 43.6664 24.2811 41.2216Z" fill="#FFC400"/>
<path d="M24.2821 41.2215C25.5311 39.2226 26.2883 36.8793 26.3765 34.3545C26.6084 27.7133 22.1438 22.0003 15.9647 20.4061C15.9488 20.662 15.9353 20.918 15.9263 21.1741C15.6509 29.0617 18.9099 36.253 24.2821 41.2215Z" fill="#FF9100"/>
<path d="M25.6847 1.73816C22.1654 4.55753 19.3864 8.27513 17.705 12.5577C16.7424 15.0107 16.1375 17.6456 15.9609 20.4077C22.1401 22.0019 26.6048 27.7149 26.3729 34.356C26.2847 36.8808 25.5252 39.2219 24.2784 41.223C26.6317 43.4003 29.3893 45.1475 32.434 46.3436C38.5454 43.5186 42.8815 37.4398 43.1326 30.2497C43.2953 25.5913 41.5054 21.4394 38.9764 17.9349C36.3054 14.2285 25.6847 1.73816 25.6847 1.73816Z" fill="#DD2C00"/>
</svg>
