<svg width="40" height="40" viewBox="0 0 40 40" fill="none" xmlns="http://www.w3.org/2000/svg">
<path d="M13.9734 37.1053C15.1839 37.1053 15.526 36.6316 15.526 36.0264C15.526 35.4211 15.526 34.1053 15.4997 32.2369C9.21024 33.579 7.86814 29.2369 7.86814 29.2369C6.84182 26.6843 5.34182 25.9737 5.34182 25.9737C3.28919 24.6053 5.49972 24.6316 5.49972 24.6316C7.76287 24.7895 8.9734 26.9211 8.9734 26.9211C10.9997 30.3422 14.2629 29.3422 15.5523 28.7632C15.6576 27.6316 16.1576 26.5527 16.9997 25.7632C11.9734 25.2106 6.68393 23.2895 6.68393 14.7632C6.65761 12.5527 7.49972 10.3948 9.02603 8.78953C8.76287 8.2369 7.99972 5.97374 9.21024 2.89479C9.21024 2.89479 11.105 2.28953 15.4471 5.18426C19.1576 4.18426 23.0523 4.18426 26.7629 5.18426C31.0523 2.31584 32.9734 2.89479 32.9734 2.89479C34.1839 5.94742 33.4208 8.21058 33.2102 8.78953C34.7366 10.3948 35.5523 12.5527 35.526 14.7632C35.526 23.3158 30.2366 25.1843 25.1839 25.7369C25.9734 26.3948 26.7102 27.7632 26.7102 29.8422C26.7102 32.8422 26.6839 35.2106 26.6839 35.9211C26.6839 36.5001 26.9471 36.9737 28.2366 36.9737L13.9734 37.1053Z" fill="black"/>
</svg>
