<svg width="115" height="115" viewBox="0 0 115 115" fill="none" xmlns="http://www.w3.org/2000/svg">
<g filter="url(#filter0_d_1346_3850)">
<rect x="15.5" y="6.5" width="84" height="84" rx="42" stroke="#4E6774" stroke-dasharray="5 5"/>
<rect x="19" y="10" width="77" height="77" rx="38" fill="#4D6674"/>
<path d="M52.1211 36.8125C52.6712 36.8125 53.1172 36.3665 53.1172 35.8164C53.1172 35.2663 52.6712 34.8203 52.1211 34.8203C51.571 34.8203 51.125 35.2663 51.125 35.8164C51.125 36.3665 51.571 36.8125 52.1211 36.8125Z" fill="white"/>
<path d="M71.3789 59.3906C71.929 59.3906 72.375 58.9447 72.375 58.3945C72.375 57.8444 71.929 57.3984 71.3789 57.3984C70.8288 57.3984 70.3828 57.8444 70.3828 58.3945C70.3828 58.9447 70.8288 59.3906 71.3789 59.3906Z" fill="white"/>
<path d="M43.8203 36.8125C44.1871 36.8125 44.4844 36.5152 44.4844 36.1484C44.4844 35.7817 44.1871 35.4844 43.8203 35.4844C43.4536 35.4844 43.1562 35.7817 43.1562 36.1484C43.1562 36.5152 43.4536 36.8125 43.8203 36.8125Z" fill="white"/>
<path d="M57.1016 39.4688C57.4683 39.4688 57.7656 39.1714 57.7656 38.8047C57.7656 38.4379 57.4683 38.1406 57.1016 38.1406C56.7348 38.1406 56.4375 38.4379 56.4375 38.8047C56.4375 39.1714 56.7348 39.4688 57.1016 39.4688Z" fill="white"/>
<path d="M58.4297 58.7266C58.7964 58.7266 59.0938 58.4293 59.0938 58.0625C59.0938 57.6957 58.7964 57.3984 58.4297 57.3984C58.0629 57.3984 57.7656 57.6957 57.7656 58.0625C57.7656 58.4293 58.0629 58.7266 58.4297 58.7266Z" fill="white"/>
<path d="M65.7344 64.0391C66.1011 64.0391 66.3984 63.7418 66.3984 63.375C66.3984 63.0082 66.1011 62.7109 65.7344 62.7109C65.3676 62.7109 65.0703 63.0082 65.0703 63.375C65.0703 63.7418 65.3676 64.0391 65.7344 64.0391Z" fill="white"/>
<path d="M51.9949 64.7031H44.2785C42.5652 64.7031 41.1641 63.302 41.1641 61.5887V45.2395C41.1641 43.5195 42.5652 42.125 44.2785 42.125H51.9883C53.7082 42.125 55.1027 43.5262 55.1027 45.2395V61.582C55.1094 63.302 53.7082 64.7031 51.9949 64.7031ZM44.2785 43.4531C43.2957 43.4531 42.4922 44.2566 42.4922 45.2395V61.582C42.4922 62.5715 43.2957 63.3684 44.2785 63.3684H51.9883C52.9777 63.3684 53.7746 62.5648 53.7746 61.582V45.2395C53.7746 44.25 52.9711 43.4531 51.9883 43.4531H44.2785Z" fill="white"/>
<path d="M54.4453 47.4375H41.8281C41.4629 47.4375 41.1641 47.1387 41.1641 46.7734C41.1641 46.4082 41.4629 46.1094 41.8281 46.1094H54.4453C54.8105 46.1094 55.1094 46.4082 55.1094 46.7734C55.1094 47.1387 54.8105 47.4375 54.4453 47.4375ZM54.4453 60.7188H41.8281C41.4629 60.7188 41.1641 60.4199 41.1641 60.0547C41.1641 59.6895 41.4629 59.3906 41.8281 59.3906H54.4453C54.8105 59.3906 55.1094 59.6895 55.1094 60.0547C55.1094 60.4199 54.8105 60.7188 54.4453 60.7188ZM70.5887 54.7422H62.8723C61.1523 54.7422 59.7578 53.341 59.7578 51.6277V35.2785C59.7578 33.5586 61.159 32.1641 62.8723 32.1641H70.582C72.302 32.1641 73.6965 33.5652 73.6965 35.2785V51.6211C73.7031 53.341 72.302 54.7422 70.5887 54.7422ZM62.8723 33.4922C61.8895 33.4922 61.0859 34.2957 61.0859 35.2785V51.6211C61.0859 52.6105 61.8895 53.4074 62.8723 53.4074H70.582C71.5715 53.4074 72.3684 52.6039 72.3684 51.6211V35.2785C72.3684 34.2891 71.5648 33.4922 70.582 33.4922H62.8723Z" fill="white"/>
<path d="M73.0391 37.4766H60.4219C60.0566 37.4766 59.7578 37.1777 59.7578 36.8125C59.7578 36.4473 60.0566 36.1484 60.4219 36.1484H73.0391C73.4043 36.1484 73.7031 36.4473 73.7031 36.8125C73.7031 37.1777 73.4043 37.4766 73.0391 37.4766ZM73.0391 50.7578H60.4219C60.0566 50.7578 59.7578 50.459 59.7578 50.0938C59.7578 49.7285 60.0566 49.4297 60.4219 49.4297H73.0391C73.4043 49.4297 73.7031 49.7285 73.7031 50.0938C73.7031 50.459 73.4043 50.7578 73.0391 50.7578Z" fill="white"/>
<path d="M54.8969 54.7419H49.7969C49.4316 54.7419 49.1328 54.4431 49.1328 54.0778C49.1328 53.7126 49.4316 53.4138 49.7969 53.4138H54.8969C55.7469 53.4138 56.4375 52.7231 56.4375 51.8731V46.3282C56.4375 44.7478 57.7258 43.4595 59.3063 43.4595H67.7266C68.0918 43.4595 68.3906 43.7583 68.3906 44.1235C68.3906 44.4888 68.0918 44.7876 67.7266 44.7876H59.3063C58.4563 44.7876 57.7656 45.4782 57.7656 46.3282V51.8731C57.7656 53.4536 56.4773 54.7419 54.8969 54.7419Z" fill="white"/>
<path d="M65.927 45.9169C65.668 45.6579 65.668 45.2396 65.927 44.9806L66.7836 44.1239L65.927 43.2673C65.668 43.0083 65.668 42.5899 65.927 42.331C66.1859 42.072 66.6043 42.072 66.8633 42.331L68.1914 43.6591C68.4504 43.9181 68.4504 44.3364 68.1914 44.5954L66.8633 45.9235C66.6109 46.1759 66.1859 46.1759 65.927 45.9169ZM47.8047 56.7345C46.3371 56.7345 45.1484 55.5458 45.1484 54.0782C45.1484 52.6106 46.3371 51.422 47.8047 51.422C49.2723 51.422 50.4609 52.6106 50.4609 54.0782C50.4609 55.5458 49.2723 56.7345 47.8047 56.7345ZM47.8047 52.7501C47.0742 52.7501 46.4766 53.3478 46.4766 54.0782C46.4766 54.8087 47.0742 55.4063 47.8047 55.4063C48.5352 55.4063 49.1328 54.8087 49.1328 54.0782C49.1328 53.3478 48.5352 52.7501 47.8047 52.7501Z" fill="white"/>
</g>
<defs>
<filter id="filter0_d_1346_3850" x="0" y="0" width="115" height="115" filterUnits="userSpaceOnUse" color-interpolation-filters="sRGB">
<feFlood flood-opacity="0" result="BackgroundImageFix"/>
<feColorMatrix in="SourceAlpha" type="matrix" values="0 0 0 0 0 0 0 0 0 0 0 0 0 0 0 0 0 0 127 0" result="hardAlpha"/>
<feOffset dy="9"/>
<feGaussianBlur stdDeviation="7.5"/>
<feComposite in2="hardAlpha" operator="out"/>
<feColorMatrix type="matrix" values="0 0 0 0 0.301961 0 0 0 0 0.4 0 0 0 0 0.454902 0 0 0 1 0"/>
<feBlend mode="normal" in2="BackgroundImageFix" result="effect1_dropShadow_1346_3850"/>
<feBlend mode="normal" in="SourceGraphic" in2="effect1_dropShadow_1346_3850" result="shape"/>
</filter>
</defs>
</svg>
