<svg width="34" height="34" viewBox="0 0 34 34" fill="none" xmlns="http://www.w3.org/2000/svg">
<path d="M11.6211 5.3125C12.1712 5.3125 12.6172 4.86653 12.6172 4.31641C12.6172 3.76628 12.1712 3.32031 11.6211 3.32031C11.071 3.32031 10.625 3.76628 10.625 4.31641C10.625 4.86653 11.071 5.3125 11.6211 5.3125Z" fill="#425F6F"/>
<path d="M30.8789 27.8906C31.429 27.8906 31.875 27.4447 31.875 26.8945C31.875 26.3444 31.429 25.8984 30.8789 25.8984C30.3288 25.8984 29.8828 26.3444 29.8828 26.8945C29.8828 27.4447 30.3288 27.8906 30.8789 27.8906Z" fill="#425F6F"/>
<path d="M3.32031 5.3125C3.68706 5.3125 3.98438 5.01519 3.98438 4.64844C3.98438 4.28169 3.68706 3.98438 3.32031 3.98438C2.95356 3.98438 2.65625 4.28169 2.65625 4.64844C2.65625 5.01519 2.95356 5.3125 3.32031 5.3125Z" fill="#425F6F"/>
<path d="M16.6016 7.96875C16.9683 7.96875 17.2656 7.67144 17.2656 7.30469C17.2656 6.93794 16.9683 6.64062 16.6016 6.64062C16.2348 6.64062 15.9375 6.93794 15.9375 7.30469C15.9375 7.67144 16.2348 7.96875 16.6016 7.96875Z" fill="#425F6F"/>
<path d="M17.9297 27.2266C18.2964 27.2266 18.5938 26.9293 18.5938 26.5625C18.5938 26.1957 18.2964 25.8984 17.9297 25.8984C17.5629 25.8984 17.2656 26.1957 17.2656 26.5625C17.2656 26.9293 17.5629 27.2266 17.9297 27.2266Z" fill="#425F6F"/>
<path d="M25.2344 32.5391C25.6011 32.5391 25.8984 32.2418 25.8984 31.875C25.8984 31.5082 25.6011 31.2109 25.2344 31.2109C24.8676 31.2109 24.5703 31.5082 24.5703 31.875C24.5703 32.2418 24.8676 32.5391 25.2344 32.5391Z" fill="#425F6F"/>
<path d="M11.4949 33.2031H3.77852C2.06523 33.2031 0.664062 31.802 0.664062 30.0887V13.7395C0.664062 12.0195 2.06523 10.625 3.77852 10.625H11.4883C13.2082 10.625 14.6027 12.0262 14.6027 13.7395V30.082C14.6094 31.802 13.2082 33.2031 11.4949 33.2031ZM3.77852 11.9531C2.7957 11.9531 1.99219 12.7566 1.99219 13.7395V30.082C1.99219 31.0715 2.7957 31.8684 3.77852 31.8684H11.4883C12.4777 31.8684 13.2746 31.0648 13.2746 30.082V13.7395C13.2746 12.75 12.4711 11.9531 11.4883 11.9531H3.77852Z" fill="#425F6F"/>
<path d="M13.9453 15.9375H1.32812C0.962891 15.9375 0.664062 15.6387 0.664062 15.2734C0.664062 14.9082 0.962891 14.6094 1.32812 14.6094H13.9453C14.3105 14.6094 14.6094 14.9082 14.6094 15.2734C14.6094 15.6387 14.3105 15.9375 13.9453 15.9375ZM13.9453 29.2188H1.32812C0.962891 29.2188 0.664062 28.9199 0.664062 28.5547C0.664062 28.1895 0.962891 27.8906 1.32812 27.8906H13.9453C14.3105 27.8906 14.6094 28.1895 14.6094 28.5547C14.6094 28.9199 14.3105 29.2188 13.9453 29.2188ZM30.0887 23.2422H22.3723C20.6523 23.2422 19.2578 21.841 19.2578 20.1277V3.77852C19.2578 2.05859 20.659 0.664062 22.3723 0.664062H30.082C31.802 0.664062 33.1965 2.06523 33.1965 3.77852V20.1211C33.2031 21.841 31.802 23.2422 30.0887 23.2422ZM22.3723 1.99219C21.3895 1.99219 20.5859 2.7957 20.5859 3.77852V20.1211C20.5859 21.1105 21.3895 21.9074 22.3723 21.9074H30.082C31.0715 21.9074 31.8684 21.1039 31.8684 20.1211V3.77852C31.8684 2.78906 31.0648 1.99219 30.082 1.99219H22.3723Z" fill="#425F6F"/>
<path d="M32.5391 5.97656H19.9219C19.5566 5.97656 19.2578 5.67773 19.2578 5.3125C19.2578 4.94727 19.5566 4.64844 19.9219 4.64844H32.5391C32.9043 4.64844 33.2031 4.94727 33.2031 5.3125C33.2031 5.67773 32.9043 5.97656 32.5391 5.97656ZM32.5391 19.2578H19.9219C19.5566 19.2578 19.2578 18.959 19.2578 18.5938C19.2578 18.2285 19.5566 17.9297 19.9219 17.9297H32.5391C32.9043 17.9297 33.2031 18.2285 33.2031 18.5938C33.2031 18.959 32.9043 19.2578 32.5391 19.2578Z" fill="#425F6F"/>
<path d="M14.3969 23.2418H9.29688C8.93164 23.2418 8.63281 22.9429 8.63281 22.5777C8.63281 22.2125 8.93164 21.9136 9.29688 21.9136H14.3969C15.2469 21.9136 15.9375 21.223 15.9375 20.373V14.8281C15.9375 13.2476 17.2258 11.9594 18.8063 11.9594H27.2266C27.5918 11.9594 27.8906 12.2582 27.8906 12.6234C27.8906 12.9886 27.5918 13.2875 27.2266 13.2875H18.8063C17.9563 13.2875 17.2656 13.9781 17.2656 14.8281V20.373C17.2656 21.9535 15.9773 23.2418 14.3969 23.2418Z" fill="#425F6F"/>
<path d="M25.427 14.4168C25.168 14.1578 25.168 13.7394 25.427 13.4804L26.2836 12.6238L25.427 11.7672C25.168 11.5082 25.168 11.0898 25.427 10.8308C25.6859 10.5719 26.1043 10.5719 26.3633 10.8308L27.6914 12.159C27.9504 12.4179 27.9504 12.8363 27.6914 13.0953L26.3633 14.4234C26.1109 14.6758 25.6859 14.6758 25.427 14.4168ZM7.30469 25.2344C5.83711 25.2344 4.64844 24.0457 4.64844 22.5781C4.64844 21.1105 5.83711 19.9219 7.30469 19.9219C8.77227 19.9219 9.96094 21.1105 9.96094 22.5781C9.96094 24.0457 8.77227 25.2344 7.30469 25.2344ZM7.30469 21.25C6.57422 21.25 5.97656 21.8476 5.97656 22.5781C5.97656 23.3086 6.57422 23.9062 7.30469 23.9062C8.03516 23.9062 8.63281 23.3086 8.63281 22.5781C8.63281 21.8476 8.03516 21.25 7.30469 21.25Z" fill="#425F6F"/>
</svg>
