<svg width="85" height="85" viewBox="0 0 85 85" fill="none" xmlns="http://www.w3.org/2000/svg">
<rect x="0.5" y="0.5" width="84" height="84" rx="42" stroke="#4E6774" stroke-dasharray="5 5"/>
<rect x="4" y="4" width="77" height="77" rx="38" fill="#EDEDED"/>
<path d="M37.1211 30.8125C37.6712 30.8125 38.1172 30.3665 38.1172 29.8164C38.1172 29.2663 37.6712 28.8203 37.1211 28.8203C36.571 28.8203 36.125 29.2663 36.125 29.8164C36.125 30.3665 36.571 30.8125 37.1211 30.8125Z" fill="#425F6F"/>
<path d="M56.3789 53.3906C56.929 53.3906 57.375 52.9447 57.375 52.3945C57.375 51.8444 56.929 51.3984 56.3789 51.3984C55.8288 51.3984 55.3828 51.8444 55.3828 52.3945C55.3828 52.9447 55.8288 53.3906 56.3789 53.3906Z" fill="#425F6F"/>
<path d="M28.8203 30.8125C29.1871 30.8125 29.4844 30.5152 29.4844 30.1484C29.4844 29.7817 29.1871 29.4844 28.8203 29.4844C28.4536 29.4844 28.1562 29.7817 28.1562 30.1484C28.1562 30.5152 28.4536 30.8125 28.8203 30.8125Z" fill="#425F6F"/>
<path d="M42.1016 33.4688C42.4683 33.4688 42.7656 33.1714 42.7656 32.8047C42.7656 32.4379 42.4683 32.1406 42.1016 32.1406C41.7348 32.1406 41.4375 32.4379 41.4375 32.8047C41.4375 33.1714 41.7348 33.4688 42.1016 33.4688Z" fill="#425F6F"/>
<path d="M43.4297 52.7266C43.7964 52.7266 44.0938 52.4293 44.0938 52.0625C44.0938 51.6957 43.7964 51.3984 43.4297 51.3984C43.0629 51.3984 42.7656 51.6957 42.7656 52.0625C42.7656 52.4293 43.0629 52.7266 43.4297 52.7266Z" fill="#425F6F"/>
<path d="M50.7344 58.0391C51.1011 58.0391 51.3984 57.7418 51.3984 57.375C51.3984 57.0082 51.1011 56.7109 50.7344 56.7109C50.3676 56.7109 50.0703 57.0082 50.0703 57.375C50.0703 57.7418 50.3676 58.0391 50.7344 58.0391Z" fill="#425F6F"/>
<path d="M36.9949 58.7031H29.2785C27.5652 58.7031 26.1641 57.302 26.1641 55.5887V39.2395C26.1641 37.5195 27.5652 36.125 29.2785 36.125H36.9883C38.7082 36.125 40.1027 37.5262 40.1027 39.2395V55.582C40.1094 57.302 38.7082 58.7031 36.9949 58.7031ZM29.2785 37.4531C28.2957 37.4531 27.4922 38.2566 27.4922 39.2395V55.582C27.4922 56.5715 28.2957 57.3684 29.2785 57.3684H36.9883C37.9777 57.3684 38.7746 56.5648 38.7746 55.582V39.2395C38.7746 38.25 37.9711 37.4531 36.9883 37.4531H29.2785Z" fill="#425F6F"/>
<path d="M39.4453 41.4375H26.8281C26.4629 41.4375 26.1641 41.1387 26.1641 40.7734C26.1641 40.4082 26.4629 40.1094 26.8281 40.1094H39.4453C39.8105 40.1094 40.1094 40.4082 40.1094 40.7734C40.1094 41.1387 39.8105 41.4375 39.4453 41.4375ZM39.4453 54.7188H26.8281C26.4629 54.7188 26.1641 54.4199 26.1641 54.0547C26.1641 53.6895 26.4629 53.3906 26.8281 53.3906H39.4453C39.8105 53.3906 40.1094 53.6895 40.1094 54.0547C40.1094 54.4199 39.8105 54.7188 39.4453 54.7188ZM55.5887 48.7422H47.8723C46.1523 48.7422 44.7578 47.341 44.7578 45.6277V29.2785C44.7578 27.5586 46.159 26.1641 47.8723 26.1641H55.582C57.302 26.1641 58.6965 27.5652 58.6965 29.2785V45.6211C58.7031 47.341 57.302 48.7422 55.5887 48.7422ZM47.8723 27.4922C46.8895 27.4922 46.0859 28.2957 46.0859 29.2785V45.6211C46.0859 46.6105 46.8895 47.4074 47.8723 47.4074H55.582C56.5715 47.4074 57.3684 46.6039 57.3684 45.6211V29.2785C57.3684 28.2891 56.5648 27.4922 55.582 27.4922H47.8723Z" fill="#425F6F"/>
<path d="M58.0391 31.4766H45.4219C45.0566 31.4766 44.7578 31.1777 44.7578 30.8125C44.7578 30.4473 45.0566 30.1484 45.4219 30.1484H58.0391C58.4043 30.1484 58.7031 30.4473 58.7031 30.8125C58.7031 31.1777 58.4043 31.4766 58.0391 31.4766ZM58.0391 44.7578H45.4219C45.0566 44.7578 44.7578 44.459 44.7578 44.0938C44.7578 43.7285 45.0566 43.4297 45.4219 43.4297H58.0391C58.4043 43.4297 58.7031 43.7285 58.7031 44.0938C58.7031 44.459 58.4043 44.7578 58.0391 44.7578Z" fill="#425F6F"/>
<path d="M39.8969 48.7419H34.7969C34.4316 48.7419 34.1328 48.4431 34.1328 48.0778C34.1328 47.7126 34.4316 47.4138 34.7969 47.4138H39.8969C40.7469 47.4138 41.4375 46.7231 41.4375 45.8731V40.3282C41.4375 38.7478 42.7258 37.4595 44.3063 37.4595H52.7266C53.0918 37.4595 53.3906 37.7583 53.3906 38.1235C53.3906 38.4888 53.0918 38.7876 52.7266 38.7876H44.3063C43.4563 38.7876 42.7656 39.4782 42.7656 40.3282V45.8731C42.7656 47.4536 41.4773 48.7419 39.8969 48.7419Z" fill="#425F6F"/>
<path d="M50.927 39.9169C50.668 39.6579 50.668 39.2396 50.927 38.9806L51.7836 38.1239L50.927 37.2673C50.668 37.0083 50.668 36.5899 50.927 36.331C51.1859 36.072 51.6043 36.072 51.8633 36.331L53.1914 37.6591C53.4504 37.9181 53.4504 38.3364 53.1914 38.5954L51.8633 39.9235C51.6109 40.1759 51.1859 40.1759 50.927 39.9169ZM32.8047 50.7345C31.3371 50.7345 30.1484 49.5458 30.1484 48.0782C30.1484 46.6106 31.3371 45.422 32.8047 45.422C34.2723 45.422 35.4609 46.6106 35.4609 48.0782C35.4609 49.5458 34.2723 50.7345 32.8047 50.7345ZM32.8047 46.7501C32.0742 46.7501 31.4766 47.3478 31.4766 48.0782C31.4766 48.8087 32.0742 49.4063 32.8047 49.4063C33.5352 49.4063 34.1328 48.8087 34.1328 48.0782C34.1328 47.3478 33.5352 46.7501 32.8047 46.7501Z" fill="#425F6F"/>
</svg>
